# xmcd
#
# Track frame offsets:
#	150
#	15830
#	37375
#
# Disc length: 717 seconds
#
# Revision: 0
# Processed by: cddbd v1.5.2PL0 Copyright (c) Steve Scherf et al.
# Submitted via: audiograbber 1.83.01
#
DISCID=1b02cb03
DTITLE=Destinys Child - CDHS-Destinys Child
DYEAR=2001
DGENRE=Pop
TTITLE0=Bootylicious (Album)
TTITLE1=Bootylicious (Ed Case Refix)
TTITLE2=Bootylicious (M&J's Jelly Remix
EXTD=
EXTT0=
EXTT1=
EXTT2=
PLAYORDER=
